<svg width="289" height="213" viewBox="0 0 289 213" fill="none" xmlns="http://www.w3.org/2000/svg">
<path d="M10.512 45.944V35.288H26.16C28.208 35.288 30.064 34.872 31.728 34.04C33.392 33.208 34.704 32.024 35.664 30.488C36.624 28.888 37.104 26.968 37.104 24.728C37.104 22.552 36.624 20.664 35.664 19.064C34.704 17.464 33.392 16.248 31.728 15.416C30.064 14.584 28.208 14.168 26.16 14.168H10.512V3.512H27.504C31.792 3.512 35.632 4.376 39.024 6.10399C42.48 7.832 45.2 10.296 47.184 13.496C49.168 16.632 50.16 20.376 50.16 24.728C50.16 29.08 49.168 32.856 47.184 36.056C45.2 39.192 42.48 41.624 39.024 43.352C35.632 45.08 31.792 45.944 27.504 45.944H10.512ZM0.912 71V3.512H13.968V71H0.912ZM75.96 71.96C71.736 71.96 67.928 70.904 64.536 68.792C61.144 66.68 58.488 63.8 56.568 60.152C54.648 56.504 53.688 52.408 53.688 47.864C53.688 43.256 54.648 39.128 56.568 35.48C58.488 31.832 61.144 28.952 64.536 26.84C67.928 24.728 71.736 23.672 75.96 23.672C79.288 23.672 82.264 24.344 84.888 25.688C87.512 27.032 89.592 28.92 91.128 31.352C92.728 33.72 93.592 36.408 93.72 39.416V56.12C93.592 59.192 92.728 61.912 91.128 64.28C89.592 66.648 87.512 68.536 84.888 69.944C82.264 71.288 79.288 71.96 75.96 71.96ZM78.264 60.344C81.784 60.344 84.632 59.192 86.808 56.888C88.984 54.52 90.072 51.48 90.072 47.768C90.072 45.336 89.56 43.192 88.536 41.336C87.576 39.416 86.2 37.944 84.408 36.92C82.68 35.832 80.632 35.288 78.264 35.288C75.96 35.288 73.912 35.832 72.12 36.92C70.392 37.944 69.016 39.416 67.992 41.336C67.032 43.192 66.552 45.336 66.552 47.768C66.552 50.264 67.032 52.472 67.992 54.392C69.016 56.248 70.392 57.72 72.12 58.808C73.912 59.832 75.96 60.344 78.264 60.344ZM89.4 71V58.52L91.416 47.192L89.4 36.056V24.632H101.88V71H89.4ZM119.15 71V19.64C119.15 15.928 119.95 12.664 121.549 9.848C123.15 6.968 125.422 4.696 128.366 3.032C131.31 1.368 134.766 0.535997 138.734 0.535997C141.742 0.535997 144.334 1.048 146.51 2.07199C148.686 3.096 150.638 4.504 152.366 6.296L144.398 14.36C143.694 13.656 142.926 13.112 142.094 12.728C141.262 12.344 140.206 12.152 138.926 12.152C136.622 12.152 134.83 12.792 133.55 14.072C132.334 15.288 131.726 17.048 131.726 19.352V71H119.15ZM108.398 35.672V24.632H145.454V35.672H108.398ZM172.86 71.96C168.188 71.96 163.964 70.904 160.188 68.792C156.476 66.616 153.5 63.704 151.26 60.056C149.084 56.344 147.996 52.216 147.996 47.672C147.996 43.128 149.084 39.064 151.26 35.48C153.436 31.832 156.412 28.952 160.188 26.84C163.964 24.664 168.156 23.576 172.764 23.576C177.5 23.576 181.724 24.664 185.436 26.84C189.212 28.952 192.188 31.832 194.364 35.48C196.54 39.064 197.628 43.128 197.628 47.672C197.628 52.216 196.54 56.344 194.364 60.056C192.188 63.704 189.212 66.616 185.436 68.792C181.724 70.904 177.532 71.96 172.86 71.96ZM172.764 60.248C175.132 60.248 177.212 59.736 179.004 58.712C180.86 57.624 182.268 56.152 183.228 54.296C184.252 52.376 184.764 50.2 184.764 47.768C184.764 45.336 184.252 43.192 183.228 41.336C182.204 39.48 180.796 38.04 179.004 37.016C177.212 35.928 175.132 35.384 172.764 35.384C170.46 35.384 168.412 35.928 166.62 37.016C164.828 38.04 163.42 39.48 162.396 41.336C161.372 43.192 160.86 45.336 160.86 47.768C160.86 50.2 161.372 52.376 162.396 54.296C163.42 56.152 164.828 57.624 166.62 58.712C168.412 59.736 170.46 60.248 172.764 60.248ZM221.66 72.056C219.036 72.056 216.444 71.704 213.884 71C211.388 70.296 209.084 69.336 206.972 68.12C204.86 66.84 203.036 65.304 201.5 63.512L208.988 55.928C210.588 57.72 212.444 59.064 214.556 59.96C216.668 60.856 219.004 61.304 221.564 61.304C223.612 61.304 225.148 61.016 226.172 60.44C227.26 59.864 227.804 59 227.804 57.848C227.804 56.568 227.228 55.576 226.076 54.872C224.988 54.168 223.548 53.592 221.756 53.144C219.964 52.632 218.076 52.088 216.092 51.512C214.172 50.872 212.316 50.072 210.524 49.112C208.732 48.088 207.26 46.712 206.108 44.984C205.02 43.192 204.476 40.888 204.476 38.072C204.476 35.128 205.18 32.568 206.588 30.392C208.06 28.216 210.14 26.52 212.828 25.304C215.516 24.088 218.684 23.48 222.332 23.48C226.172 23.48 229.628 24.152 232.7 25.496C235.836 26.84 238.428 28.856 240.476 31.544L232.892 39.128C231.484 37.4 229.884 36.152 228.092 35.384C226.364 34.616 224.476 34.232 222.428 34.232C220.572 34.232 219.132 34.52 218.108 35.096C217.148 35.672 216.668 36.472 216.668 37.496C216.668 38.648 217.212 39.544 218.3 40.184C219.452 40.824 220.924 41.4 222.716 41.912C224.508 42.36 226.364 42.904 228.284 43.544C230.268 44.12 232.124 44.952 233.852 46.04C235.644 47.128 237.084 48.568 238.172 50.36C239.324 52.152 239.9 54.456 239.9 57.272C239.9 61.816 238.268 65.432 235.004 68.12C231.74 70.744 227.292 72.056 221.66 72.056ZM0.912 192V124.512H13.968V192H0.912ZM10.512 192V180.48H47.856V192H10.512ZM10.512 163.104V151.968H44.496V163.104H10.512ZM10.512 136.032V124.512H47.376V136.032H10.512ZM88.518 192V165.408C88.518 162.656 87.654 160.416 85.926 158.688C84.198 156.96 81.958 156.096 79.206 156.096C77.414 156.096 75.814 156.48 74.406 157.248C72.998 158.016 71.878 159.104 71.046 160.512C70.278 161.92 69.894 163.552 69.894 165.408L64.998 162.912C64.998 159.264 65.766 156.096 67.302 153.408C68.902 150.656 71.078 148.512 73.83 146.976C76.646 145.44 79.814 144.672 83.334 144.672C86.726 144.672 89.766 145.536 92.454 147.264C95.142 148.928 97.254 151.136 98.79 153.888C100.326 156.576 101.094 159.488 101.094 162.624V192H88.518ZM57.318 192V145.632H69.894V192H57.318ZM130.616 212.544C125.688 212.544 121.336 211.648 117.56 209.856C113.784 208.128 110.776 205.664 108.536 202.464L116.504 194.496C118.296 196.608 120.28 198.208 122.456 199.296C124.696 200.448 127.384 201.024 130.52 201.024C134.424 201.024 137.496 200.032 139.736 198.048C142.04 196.064 143.192 193.312 143.192 189.792V178.176L145.304 168L143.288 157.824V145.632H155.768V189.6C155.768 194.208 154.68 198.208 152.504 201.6C150.392 205.056 147.448 207.744 143.672 209.664C139.896 211.584 135.544 212.544 130.616 212.544ZM130.04 190.752C125.88 190.752 122.136 189.76 118.808 187.776C115.48 185.728 112.856 182.944 110.936 179.424C109.08 175.904 108.152 171.968 108.152 167.616C108.152 163.264 109.08 159.36 110.936 155.904C112.856 152.448 115.48 149.728 118.808 147.744C122.136 145.696 125.88 144.672 130.04 144.672C133.496 144.672 136.536 145.344 139.16 146.688C141.848 148.032 143.96 149.888 145.496 152.256C147.032 154.56 147.864 157.28 147.992 160.416V175.008C147.864 178.08 147 180.832 145.4 183.264C143.864 185.632 141.752 187.488 139.064 188.832C136.44 190.112 133.432 190.752 130.04 190.752ZM132.536 179.328C134.84 179.328 136.824 178.848 138.488 177.888C140.216 176.864 141.56 175.488 142.52 173.76C143.48 171.968 143.96 169.952 143.96 167.712C143.96 165.408 143.48 163.392 142.52 161.664C141.56 159.936 140.216 158.592 138.488 157.632C136.824 156.608 134.84 156.096 132.536 156.096C130.232 156.096 128.216 156.608 126.488 157.632C124.76 158.592 123.416 159.968 122.456 161.76C121.496 163.488 121.016 165.472 121.016 167.712C121.016 169.888 121.496 171.872 122.456 173.664C123.416 175.392 124.76 176.768 126.488 177.792C128.216 178.816 130.232 179.328 132.536 179.328ZM166.818 192V145.632H179.49V192H166.818ZM173.154 138.144C171.106 138.144 169.41 137.472 168.066 136.128C166.722 134.72 166.05 132.992 166.05 130.944C166.05 128.96 166.722 127.264 168.066 125.856C169.41 124.448 171.106 123.744 173.154 123.744C175.266 123.744 176.962 124.448 178.242 125.856C179.586 127.264 180.258 128.96 180.258 130.944C180.258 132.992 179.586 134.72 178.242 136.128C176.962 137.472 175.266 138.144 173.154 138.144ZM221.831 192V165.408C221.831 162.656 220.967 160.416 219.239 158.688C217.511 156.96 215.271 156.096 212.519 156.096C210.727 156.096 209.127 156.48 207.719 157.248C206.311 158.016 205.191 159.104 204.359 160.512C203.591 161.92 203.207 163.552 203.207 165.408L198.311 162.912C198.311 159.264 199.079 156.096 200.615 153.408C202.215 150.656 204.391 148.512 207.143 146.976C209.959 145.44 213.127 144.672 216.647 144.672C220.039 144.672 223.079 145.536 225.767 147.264C228.455 148.928 230.567 151.136 232.103 153.888C233.639 156.576 234.406 159.488 234.406 162.624V192H221.831ZM190.631 192V145.632H203.207V192H190.631ZM266.713 192.96C261.849 192.96 257.529 191.936 253.753 189.888C249.977 187.776 246.969 184.896 244.729 181.248C242.553 177.6 241.465 173.44 241.465 168.768C241.465 164.16 242.521 160.064 244.633 156.48C246.809 152.832 249.753 149.952 253.465 147.84C257.177 145.664 261.305 144.576 265.849 144.576C270.329 144.576 274.265 145.6 277.657 147.648C281.113 149.632 283.801 152.384 285.721 155.904C287.705 159.36 288.697 163.296 288.697 167.712C288.697 168.544 288.633 169.408 288.505 170.304C288.441 171.136 288.281 172.096 288.025 173.184L249.049 173.28V163.872L282.169 163.776L277.081 167.712C276.953 164.96 276.441 162.656 275.545 160.8C274.713 158.944 273.465 157.536 271.801 156.576C270.201 155.552 268.217 155.04 265.849 155.04C263.353 155.04 261.177 155.616 259.321 156.768C257.465 157.856 256.025 159.424 255.001 161.472C254.041 163.456 253.561 165.824 253.561 168.576C253.561 171.392 254.073 173.856 255.097 175.968C256.185 178.016 257.721 179.616 259.705 180.768C261.689 181.856 263.993 182.4 266.617 182.4C268.985 182.4 271.129 182.016 273.049 181.248C274.969 180.416 276.633 179.2 278.041 177.6L285.433 184.992C283.193 187.616 280.441 189.6 277.177 190.944C273.977 192.288 270.489 192.96 266.713 192.96Z" fill="black"/>
</svg>
