<svg width="600" height="600" viewBox="0 0 600 600" fill="none" xmlns="http://www.w3.org/2000/svg">
<rect x="5" y="5" width="590" height="590" fill="black" stroke="white" stroke-width="10"/>
<mask id="mask0_15_35" style="mask-type:alpha" maskUnits="userSpaceOnUse" x="0" y="0" width="600" height="600">
<rect x="2" y="2" width="596" height="596" fill="white" stroke="black" stroke-width="4"/>
</mask>
<g mask="url(#mask0_15_35)">
<circle cx="600" cy="600" r="199" fill="#EDEDED"/>
<circle cx="599.5" cy="599.5" r="105.5" fill="white"/>
</g>
<path d="M116.512 249.944V239.288H132.16C134.208 239.288 136.064 238.872 137.728 238.04C139.392 237.208 140.704 236.024 141.664 234.488C142.624 232.888 143.104 230.968 143.104 228.728C143.104 226.552 142.624 224.664 141.664 223.064C140.704 221.464 139.392 220.248 137.728 219.416C136.064 218.584 134.208 218.168 132.16 218.168H116.512V207.512H133.504C137.792 207.512 141.632 208.376 145.024 210.104C148.48 211.832 151.2 214.296 153.184 217.496C155.168 220.632 156.16 224.376 156.16 228.728C156.16 233.08 155.168 236.856 153.184 240.056C151.2 243.192 148.48 245.624 145.024 247.352C141.632 249.08 137.792 249.944 133.504 249.944H116.512ZM106.912 275V207.512H119.968V275H106.912ZM181.96 275.96C177.736 275.96 173.928 274.904 170.536 272.792C167.144 270.68 164.488 267.8 162.568 264.152C160.648 260.504 159.688 256.408 159.688 251.864C159.688 247.256 160.648 243.128 162.568 239.48C164.488 235.832 167.144 232.952 170.536 230.84C173.928 228.728 177.736 227.672 181.96 227.672C185.288 227.672 188.264 228.344 190.888 229.688C193.512 231.032 195.592 232.92 197.128 235.352C198.728 237.72 199.592 240.408 199.72 243.416V260.12C199.592 263.192 198.728 265.912 197.128 268.28C195.592 270.648 193.512 272.536 190.888 273.944C188.264 275.288 185.288 275.96 181.96 275.96ZM184.264 264.344C187.784 264.344 190.632 263.192 192.808 260.888C194.984 258.52 196.072 255.48 196.072 251.768C196.072 249.336 195.56 247.192 194.536 245.336C193.576 243.416 192.2 241.944 190.408 240.92C188.68 239.832 186.632 239.288 184.264 239.288C181.96 239.288 179.912 239.832 178.12 240.92C176.392 241.944 175.016 243.416 173.992 245.336C173.032 247.192 172.552 249.336 172.552 251.768C172.552 254.264 173.032 256.472 173.992 258.392C175.016 260.248 176.392 261.72 178.12 262.808C179.912 263.832 181.96 264.344 184.264 264.344ZM195.4 275V262.52L197.416 251.192L195.4 240.056V228.632H207.88V275H195.4ZM225.15 275V223.64C225.15 219.928 225.95 216.664 227.549 213.848C229.15 210.968 231.422 208.696 234.366 207.032C237.31 205.368 240.766 204.536 244.734 204.536C247.742 204.536 250.334 205.048 252.51 206.072C254.686 207.096 256.638 208.504 258.366 210.296L250.398 218.36C249.694 217.656 248.926 217.112 248.094 216.728C247.262 216.344 246.206 216.152 244.926 216.152C242.622 216.152 240.83 216.792 239.55 218.072C238.334 219.288 237.726 221.048 237.726 223.352V275H225.15ZM214.398 239.672V228.632H251.454V239.672H214.398ZM278.86 275.96C274.188 275.96 269.964 274.904 266.188 272.792C262.476 270.616 259.5 267.704 257.26 264.056C255.084 260.344 253.996 256.216 253.996 251.672C253.996 247.128 255.084 243.064 257.26 239.48C259.436 235.832 262.412 232.952 266.188 230.84C269.964 228.664 274.156 227.576 278.764 227.576C283.5 227.576 287.724 228.664 291.436 230.84C295.212 232.952 298.188 235.832 300.364 239.48C302.54 243.064 303.628 247.128 303.628 251.672C303.628 256.216 302.54 260.344 300.364 264.056C298.188 267.704 295.212 270.616 291.436 272.792C287.724 274.904 283.532 275.96 278.86 275.96ZM278.764 264.248C281.132 264.248 283.212 263.736 285.004 262.712C286.86 261.624 288.268 260.152 289.228 258.296C290.252 256.376 290.764 254.2 290.764 251.768C290.764 249.336 290.252 247.192 289.228 245.336C288.204 243.48 286.796 242.04 285.004 241.016C283.212 239.928 281.132 239.384 278.764 239.384C276.46 239.384 274.412 239.928 272.62 241.016C270.828 242.04 269.42 243.48 268.396 245.336C267.372 247.192 266.86 249.336 266.86 251.768C266.86 254.2 267.372 256.376 268.396 258.296C269.42 260.152 270.828 261.624 272.62 262.712C274.412 263.736 276.46 264.248 278.764 264.248ZM327.66 276.056C325.036 276.056 322.444 275.704 319.884 275C317.388 274.296 315.084 273.336 312.972 272.12C310.86 270.84 309.036 269.304 307.5 267.512L314.988 259.928C316.588 261.72 318.444 263.064 320.556 263.96C322.668 264.856 325.004 265.304 327.564 265.304C329.612 265.304 331.148 265.016 332.172 264.44C333.26 263.864 333.804 263 333.804 261.848C333.804 260.568 333.228 259.576 332.076 258.872C330.988 258.168 329.548 257.592 327.756 257.144C325.964 256.632 324.076 256.088 322.092 255.512C320.172 254.872 318.316 254.072 316.524 253.112C314.732 252.088 313.26 250.712 312.108 248.984C311.02 247.192 310.476 244.888 310.476 242.072C310.476 239.128 311.18 236.568 312.588 234.392C314.06 232.216 316.14 230.52 318.828 229.304C321.516 228.088 324.684 227.48 328.332 227.48C332.172 227.48 335.628 228.152 338.7 229.496C341.836 230.84 344.428 232.856 346.476 235.544L338.892 243.128C337.484 241.4 335.884 240.152 334.092 239.384C332.364 238.616 330.476 238.232 328.428 238.232C326.572 238.232 325.132 238.52 324.108 239.096C323.148 239.672 322.668 240.472 322.668 241.496C322.668 242.648 323.212 243.544 324.3 244.184C325.452 244.824 326.924 245.4 328.716 245.912C330.508 246.36 332.364 246.904 334.284 247.544C336.268 248.12 338.124 248.952 339.852 250.04C341.644 251.128 343.084 252.568 344.172 254.36C345.324 256.152 345.9 258.456 345.9 261.272C345.9 265.816 344.268 269.432 341.004 272.12C337.74 274.744 333.292 276.056 327.66 276.056ZM106.912 396V328.512H119.968V396H106.912ZM116.512 396V384.48H153.856V396H116.512ZM116.512 367.104V355.968H150.496V367.104H116.512ZM116.512 340.032V328.512H153.376V340.032H116.512ZM194.518 396V369.408C194.518 366.656 193.654 364.416 191.926 362.688C190.198 360.96 187.958 360.096 185.206 360.096C183.414 360.096 181.814 360.48 180.406 361.248C178.998 362.016 177.878 363.104 177.046 364.512C176.278 365.92 175.894 367.552 175.894 369.408L170.998 366.912C170.998 363.264 171.766 360.096 173.302 357.408C174.902 354.656 177.078 352.512 179.83 350.976C182.646 349.44 185.814 348.672 189.334 348.672C192.726 348.672 195.766 349.536 198.454 351.264C201.142 352.928 203.254 355.136 204.79 357.888C206.326 360.576 207.094 363.488 207.094 366.624V396H194.518ZM163.318 396V349.632H175.894V396H163.318ZM236.616 416.544C231.688 416.544 227.336 415.648 223.56 413.856C219.784 412.128 216.776 409.664 214.536 406.464L222.504 398.496C224.296 400.608 226.28 402.208 228.456 403.296C230.696 404.448 233.384 405.024 236.52 405.024C240.424 405.024 243.496 404.032 245.736 402.048C248.04 400.064 249.192 397.312 249.192 393.792V382.176L251.304 372L249.288 361.824V349.632H261.768V393.6C261.768 398.208 260.68 402.208 258.504 405.6C256.392 409.056 253.448 411.744 249.672 413.664C245.896 415.584 241.544 416.544 236.616 416.544ZM236.04 394.752C231.88 394.752 228.136 393.76 224.808 391.776C221.48 389.728 218.856 386.944 216.936 383.424C215.08 379.904 214.152 375.968 214.152 371.616C214.152 367.264 215.08 363.36 216.936 359.904C218.856 356.448 221.48 353.728 224.808 351.744C228.136 349.696 231.88 348.672 236.04 348.672C239.496 348.672 242.536 349.344 245.16 350.688C247.848 352.032 249.96 353.888 251.496 356.256C253.032 358.56 253.864 361.28 253.992 364.416V379.008C253.864 382.08 253 384.832 251.4 387.264C249.864 389.632 247.752 391.488 245.064 392.832C242.44 394.112 239.432 394.752 236.04 394.752ZM238.536 383.328C240.84 383.328 242.824 382.848 244.488 381.888C246.216 380.864 247.56 379.488 248.52 377.76C249.48 375.968 249.96 373.952 249.96 371.712C249.96 369.408 249.48 367.392 248.52 365.664C247.56 363.936 246.216 362.592 244.488 361.632C242.824 360.608 240.84 360.096 238.536 360.096C236.232 360.096 234.216 360.608 232.488 361.632C230.76 362.592 229.416 363.968 228.456 365.76C227.496 367.488 227.016 369.472 227.016 371.712C227.016 373.888 227.496 375.872 228.456 377.664C229.416 379.392 230.76 380.768 232.488 381.792C234.216 382.816 236.232 383.328 238.536 383.328ZM272.818 396V349.632H285.49V396H272.818ZM279.154 342.144C277.106 342.144 275.41 341.472 274.066 340.128C272.722 338.72 272.05 336.992 272.05 334.944C272.05 332.96 272.722 331.264 274.066 329.856C275.41 328.448 277.106 327.744 279.154 327.744C281.266 327.744 282.962 328.448 284.242 329.856C285.586 331.264 286.258 332.96 286.258 334.944C286.258 336.992 285.586 338.72 284.242 340.128C282.962 341.472 281.266 342.144 279.154 342.144ZM327.831 396V369.408C327.831 366.656 326.967 364.416 325.239 362.688C323.511 360.96 321.271 360.096 318.519 360.096C316.727 360.096 315.127 360.48 313.719 361.248C312.311 362.016 311.191 363.104 310.359 364.512C309.591 365.92 309.207 367.552 309.207 369.408L304.311 366.912C304.311 363.264 305.079 360.096 306.615 357.408C308.215 354.656 310.391 352.512 313.143 350.976C315.959 349.44 319.127 348.672 322.647 348.672C326.039 348.672 329.079 349.536 331.767 351.264C334.455 352.928 336.567 355.136 338.103 357.888C339.639 360.576 340.406 363.488 340.406 366.624V396H327.831ZM296.631 396V349.632H309.207V396H296.631ZM372.713 396.96C367.849 396.96 363.529 395.936 359.753 393.888C355.977 391.776 352.969 388.896 350.729 385.248C348.553 381.6 347.465 377.44 347.465 372.768C347.465 368.16 348.521 364.064 350.633 360.48C352.809 356.832 355.753 353.952 359.465 351.84C363.177 349.664 367.305 348.576 371.849 348.576C376.329 348.576 380.265 349.6 383.657 351.648C387.113 353.632 389.801 356.384 391.721 359.904C393.705 363.36 394.697 367.296 394.697 371.712C394.697 372.544 394.633 373.408 394.505 374.304C394.441 375.136 394.281 376.096 394.025 377.184L355.049 377.28V367.872L388.169 367.776L383.081 371.712C382.953 368.96 382.441 366.656 381.545 364.8C380.713 362.944 379.465 361.536 377.801 360.576C376.201 359.552 374.217 359.04 371.849 359.04C369.353 359.04 367.177 359.616 365.321 360.768C363.465 361.856 362.025 363.424 361.001 365.472C360.041 367.456 359.561 369.824 359.561 372.576C359.561 375.392 360.073 377.856 361.097 379.968C362.185 382.016 363.721 383.616 365.705 384.768C367.689 385.856 369.993 386.4 372.617 386.4C374.985 386.4 377.129 386.016 379.049 385.248C380.969 384.416 382.633 383.2 384.041 381.6L391.433 388.992C389.193 391.616 386.441 393.6 383.177 394.944C379.977 396.288 376.489 396.96 372.713 396.96Z" fill="white"/>
<path d="M38.5 566H160.5" stroke="white" stroke-width="11"/>
</svg>
